<svg width="37" height="37" viewBox="0 0 37 37" fill="none" xmlns="http://www.w3.org/2000/svg">
<path fill-rule="evenodd" clip-rule="evenodd" d="M12.95 8.09375C8.66286 8.09375 5.01044 11.2993 5.01044 15.4626C5.01044 18.3145 6.22663 20.8224 7.91158 22.9424C9.59362 25.0587 11.7938 26.8548 13.9005 28.3142C14.7051 28.8717 15.5192 29.3859 16.2642 29.7653C16.9637 30.1216 17.7681 30.4479 18.5 30.4479C19.2319 30.4479 20.0363 30.1216 20.7359 29.7653C21.4809 29.3859 22.2949 28.8717 23.0995 28.3142C25.2062 26.8548 27.4064 25.0587 29.0885 22.9424C30.7734 20.8224 31.9896 18.3145 31.9896 15.4626C31.9896 11.2993 28.3372 8.09375 24.05 8.09375C21.8401 8.09375 19.8955 9.12996 18.5 10.4707C17.1046 9.12996 15.16 8.09375 12.95 8.09375ZM7.32294 15.4626C7.32294 12.7636 9.74451 10.4063 12.95 10.4063C14.791 10.4063 16.51 11.5061 17.5834 12.9021C17.8023 13.1867 18.141 13.3536 18.5 13.3536C18.8591 13.3536 19.1978 13.1867 19.4166 12.9021C20.49 11.5061 22.209 10.4063 24.05 10.4063C27.2555 10.4063 29.6771 12.7636 29.6771 15.4626C29.6771 17.6263 28.7586 19.6408 27.2781 21.5035C25.7948 23.3698 23.7988 25.0165 21.7826 26.4133C21.0197 26.9419 20.3011 27.3916 19.6864 27.7046C19.0263 28.0408 18.6439 28.1354 18.5 28.1354C18.3561 28.1354 17.9738 28.0408 17.3136 27.7046C16.699 27.3916 15.9803 26.9419 15.2174 26.4133C13.2012 25.0165 11.2053 23.3698 9.72191 21.5035C8.24144 19.6408 7.32294 17.6263 7.32294 15.4626Z" fill="#878D98"/>
<g filter="url(#filter0_d_23_297)">
<circle cx="25.5" cy="26.5" r="3.5" fill="#F70D4D"/>
</g>
<defs>
<filter id="filter0_d_23_297" x="17" y="19" width="17" height="17" filterUnits="userSpaceOnUse" color-interpolation-filters="sRGB">
<feFlood flood-opacity="0" result="BackgroundImageFix"/>
<feColorMatrix in="SourceAlpha" type="matrix" values="0 0 0 0 0 0 0 0 0 0 0 0 0 0 0 0 0 0 127 0" result="hardAlpha"/>
<feMorphology radius="1" operator="dilate" in="SourceAlpha" result="effect1_dropShadow_23_297"/>
<feOffset dy="1"/>
<feGaussianBlur stdDeviation="2"/>
<feComposite in2="hardAlpha" operator="out"/>
<feColorMatrix type="matrix" values="0 0 0 0 0.968627 0 0 0 0 0.0509804 0 0 0 0 0.301961 0 0 0 0.25 0"/>
<feBlend mode="normal" in2="BackgroundImageFix" result="effect1_dropShadow_23_297"/>
<feBlend mode="normal" in="SourceGraphic" in2="effect1_dropShadow_23_297" result="shape"/>
</filter>
</defs>
</svg>
