<svg width="25" height="26" viewBox="0 0 25 26" fill="none" xmlns="http://www.w3.org/2000/svg">
<path fill-rule="evenodd" clip-rule="evenodd" d="M11.7559 0C18.2381 0 23.5107 5.27261 23.5107 11.7547C23.5107 14.813 22.3371 17.6023 20.4165 19.6956L24.1956 23.4669C24.5493 23.8206 24.5505 24.3927 24.1968 24.7464C24.0206 24.9251 23.7876 25.0132 23.5558 25.0132C23.3253 25.0132 23.0935 24.9251 22.9161 24.7488L19.0913 20.9347C17.0793 22.546 14.5283 23.5107 11.7559 23.5107C5.27382 23.5107 0 18.2369 0 11.7547C0 5.27261 5.27382 0 11.7559 0ZM11.7559 1.81065C6.27209 1.81065 1.81065 6.27089 1.81065 11.7547C1.81065 17.2386 6.27209 21.7 11.7559 21.7C17.2386 21.7 21.7 17.2386 21.7 11.7547C21.7 6.27089 17.2386 1.81065 11.7559 1.81065Z" fill="#040303"/>
</svg>
