<svg width="24" height="27" viewBox="0 0 24 27" fill="none" xmlns="http://www.w3.org/2000/svg">
<path fill-rule="evenodd" clip-rule="evenodd" d="M12 10.0588C13.7871 10.0588 15.2353 11.5071 15.2353 13.2941C15.2353 15.0812 13.7871 16.5294 12 16.5294C10.213 16.5294 8.76474 15.0812 8.76474 13.2941C8.76474 11.5071 10.213 10.0588 12 10.0588Z" stroke="#878D98" stroke-width="2" stroke-linecap="round" stroke-linejoin="round"/>
<path fill-rule="evenodd" clip-rule="evenodd" d="M22.5704 7.14738C21.6858 5.60446 19.7275 5.07652 18.1969 5.9675C16.8656 6.74088 15.2018 5.7732 15.2018 4.22517C15.2018 2.44449 13.7677 1 11.9997 1C10.2318 1 8.7977 2.44449 8.7977 4.22517C8.7977 5.7732 7.13386 6.74088 5.8038 5.9675C4.27195 5.07652 2.31367 5.60446 1.42908 7.14738C0.54576 8.69029 1.06991 10.6627 2.60177 11.5524C3.93182 12.3271 3.93182 14.2612 2.60177 15.0358C1.06991 15.9268 0.54576 17.8992 1.42908 19.4409C2.31367 20.9838 4.27195 21.5117 5.80253 20.622H5.8038C7.13386 19.8474 8.7977 20.815 8.7977 22.3631C8.7977 24.1437 10.2318 25.5882 11.9997 25.5882C13.7677 25.5882 15.2018 24.1437 15.2018 22.3631C15.2018 20.815 16.8656 19.8474 18.1969 20.622C19.7275 21.5117 21.6858 20.9838 22.5704 19.4409C23.455 17.8992 22.9296 15.9268 21.399 15.0358H21.3977C20.0677 14.2612 20.0677 12.3271 21.399 11.5524C22.9296 10.6627 23.455 8.69029 22.5704 7.14738Z" stroke="#878D98" stroke-width="2" stroke-linecap="round" stroke-linejoin="round"/>
</svg>
